# xmcd
#
# Track frame offsets:
# 150
# 17601
# 30199
# 41900
# 57690
# 75567
# 90279
# 106108
# 119899
# 136316
# 154520
# 165105
# 181286
# 192036
# 207022
# 223701
#
# Disc length: 3201 seconds
#
#
# Revision: 0
# Processed by: cddbd v1.4PL0 Copyright (c) Steve Scherf et al.
# Submitted via: FreeRIP 2.35 
#
DISCID=c50c7f10
DTITLE=Lasse Stefanz - Sommardansen 3 CD 1
DYEAR=1900
DGENRE=
TTITLE0=Den finns en vind
TTITLE1=Den väg som jag ska gå
TTITLE2=Njut av livet
TTITLE3=Mitt hjärta tar semester nu
TTITLE4=Ingen annan
TTITLE5=Tiden läker alla sår
TTITLE6=Felicita
TTITLE7=Om du går
TTITLE8=Shalala lala
TTITLE9=Pizzerico
TTITLE10=Rented Tuxedo
TTITLE11=Min famn
TTITLE12=Då mår jag riktigt bra
TTITLE13=Du vinner igen
TTITLE14=Främling
TTITLE15=Septemberregn
EXTD=
EXTT0=
EXTT1=
EXTT2=
EXTT3=
EXTT4=
EXTT5=
EXTT6=
EXTT7=
EXTT8=
EXTT9=
EXTT10=
EXTT11=
EXTT12=
EXTT13=
EXTT14=
EXTT15=
PLAYORDER=
